<?xml version="1.0" encoding="UTF-8" standalone="no"?>
<!DOCTYPE svg PUBLIC "-//W3C//DTD SVG 1.1//EN" "http://www.w3.org/Graphics/SVG/1.1/DTD/svg11.dtd">
<svg width="100%" height="100%" viewBox="0 0 217 217" version="1.1" xmlns="http://www.w3.org/2000/svg" xmlns:xlink="http://www.w3.org/1999/xlink" xml:space="preserve" xmlns:serif="http://www.serif.com/" style="fill-rule:evenodd;clip-rule:evenodd;stroke-linejoin:round;stroke-miterlimit:2;">
    <g transform="matrix(1,0,0,1,-748.38,-1643.13)">
        <g transform="matrix(1.56156,0,0,1.32471,-248.531,-342.886)">
            <g transform="matrix(0.640387,0,0,0.754881,343.628,384.425)">
                <circle cx="568.604" cy="1585.05" r="108.287" style="fill:rgb(33,177,255);fill-opacity:0.1;"/>
            </g>
        </g>
        <g transform="matrix(1.56156,0,0,1.32471,-248.531,-342.886)">
            <g id="iconfinder_22_2135799" transform="matrix(0.159282,0,0,0.187759,707.755,1580.95)">
                <g transform="matrix(1,0,0,1,-256,-256)">
                    <clipPath id="_clip1">
                        <rect x="0" y="0" width="512" height="512"/>
                    </clipPath>
                    <g clip-path="url(#_clip1)">
                        <g>
                            <path id="XMLID_5_" d="M116.8,212.8C116.8,203.3 109.2,195.4 99.7,195.4L99.5,195.4C47.9,195.4 6,237.3 6,288.9C6,340.5 47.9,382.4 99.5,382.4L99.7,382.4C109.2,382.4 116.8,374.5 116.8,365L116.8,212.8Z" style="fill:none;fill-rule:nonzero;stroke:rgb(78,171,224);stroke-width:17.04px;"/>
                            <path id="XMLID_4_" d="M395.2,212.8C395.2,203.3 402.8,195.4 412.3,195.4L412.5,195.4C464.1,195.4 506,237.3 506,288.9C506,340.5 464.1,382.4 412.5,382.4L412.3,382.4C402.8,382.4 395.2,374.5 395.2,365L395.2,212.8Z" style="fill:none;fill-rule:nonzero;stroke:rgb(78,171,224);stroke-width:17.04px;"/>
                            <g>
                                <path id="XMLID_3_" d="M475.785,219.409C476.115,221.777 475.113,219.261 472.932,217.386C469.582,214.507 463.665,210.454 457.197,206.939C449.967,203.011 446.694,201.32 439.748,199.004C438.642,198.635 435.792,199.18 435.383,197.825C412.185,120.891 340.655,71.6 256.2,71.6C171.92,71.6 100.512,120.754 77.162,197.383C76.752,198.73 76.728,198.67 75.715,198.7C71.43,198.826 64.938,201.183 57.359,205.053C49.832,208.895 42.885,214.928 39.449,216.976C38.162,217.743 36.517,220.078 36.751,218.449C52.748,107.027 145.109,21.3 256.2,21.3C367.61,21.3 460.182,107.52 475.785,219.409Z" style="fill:none;fill-rule:nonzero;stroke:rgb(78,171,224);stroke-width:17.04px;"/>
                            </g>
                            <g>
                                <path id="XMLID_2_" d="M315.627,465.291C314.445,465.388 315.315,463.999 315.871,461.883C316.464,459.63 316.294,456.587 316.326,453.57C316.367,449.786 315.196,444.849 315.715,442.972C315.868,442.417 313.267,442.132 314.315,442.042C367.681,437.469 395.914,406.791 409.95,383.019C410.47,382.139 410.11,382.182 410.823,382.259C415.253,382.737 418.878,382.389 424.25,381.622C429.698,380.843 434.715,379.395 436.512,379.773C437.134,379.904 438.541,377.911 437.848,379.441C433.033,390.06 425.365,403.762 413.7,417.1C395.595,438.025 364.661,461.267 315.627,465.291Z" style="fill:none;fill-rule:nonzero;stroke:rgb(78,171,224);stroke-width:17.04px;"/>
                            </g>
                            <circle id="XMLID_1_" cx="280.2" cy="454.3" r="36.4" style="fill:none;stroke:rgb(78,171,224);stroke-width:17.04px;"/>
                        </g>
                    </g>
                </g>
            </g>
        </g>
        <g transform="matrix(1.56156,0,0,1.32471,-248.531,-342.886)">
            <g transform="matrix(2.25005,0,0,2.65233,-481.496,-2021.07)">
                <text x="499.193px" y="1388.98px" style="font-family:'Gilroy-ExtraBold', 'Gilroy';font-weight:800;font-size:24.583px;fill:rgb(176,210,239);">2</text>
            </g>
        </g>
    </g>
</svg>
