<?xml version="1.0" standalone="no"?>
<!DOCTYPE svg PUBLIC "-//W3C//DTD SVG 20010904//EN"
 "http://www.w3.org/TR/2001/REC-SVG-20010904/DTD/svg10.dtd">
<svg version="1.0" xmlns="http://www.w3.org/2000/svg"
 width="1459.000000pt" height="834.000000pt" viewBox="0 0 1459.000000 834.000000"
 preserveAspectRatio="xMidYMid meet">

<g transform="translate(0.000000,834.000000) scale(0.100000,-0.100000)"
fill="#000000" stroke="none">
<path d="M0 4175 l0 -4165 3650 0 3650 0 0 950 0 950 -22 4 c-13 3 -43 7 -68
11 -211 27 -407 192 -481 405 -27 80 -37 233 -19 323 46 240 263 447 503 480
85 11 85 11 89 42 1 16 2 179 0 361 l-3 331 -57 7 c-140 16 -261 74 -362 176
-86 86 -129 161 -161 275 -28 104 -23 255 12 360 47 140 166 277 299 344 71
36 112 49 200 64 l71 12 0 345 -1 345 -58 7 c-146 16 -254 69 -363 178 -86 86
-149 200 -170 307 -17 90 -7 244 20 322 73 212 272 379 481 406 25 4 55 8 68
11 l22 4 0 655 0 655 -3650 0 -3650 0 0 -4165z m2648 2663 c53 -27 106 -94
122 -156 12 -47 2 -429 -11 -438 -4 -2 -25 5 -46 17 -21 12 -83 46 -138 76
-141 77 -166 93 -198 122 -123 112 -79 333 78 389 54 19 143 14 193 -10z
m2212 -92 c0 -2 -34 -48 -75 -101 -41 -54 -75 -102 -75 -107 0 -5 18 -33 40
-63 35 -48 38 -55 21 -55 -12 0 -33 18 -52 45 -18 25 -34 45 -36 45 -1 0 -35
-43 -74 -95 -39 -52 -78 -95 -85 -95 -22 0 -17 11 42 90 31 41 64 87 75 101
l19 27 -35 45 c-19 25 -35 51 -35 56 0 24 29 9 55 -29 15 -22 32 -40 36 -40 5
0 39 41 76 90 41 54 75 90 85 90 10 0 18 -2 18 -4z m-1827 -107 c30 -16 37
-28 37 -70 0 -46 -23 -67 -83 -75 -45 -6 -47 -8 -47 -40 0 -31 -3 -34 -30 -34
l-30 0 0 115 0 115 66 0 c36 0 75 -5 87 -11z m129 -31 c3 -43 3 -43 45 -46
l42 -3 3 43 c3 40 5 43 36 46 l32 3 0 -115 0 -116 -35 0 c-35 0 -35 0 -35 45
l0 45 -45 0 -45 0 0 -45 c0 -43 -1 -45 -30 -45 l-30 0 0 115 0 115 29 0 c28 0
30 -3 33 -42z m261 1 l25 -41 24 41 c19 35 28 41 56 41 17 0 32 -4 32 -8 0 -5
-18 -37 -40 -71 -31 -48 -40 -71 -40 -106 0 -43 -1 -45 -30 -45 -29 0 -30 2
-30 43 0 34 -9 58 -40 106 -22 34 -40 66 -40 71 0 6 13 10 29 10 24 0 35 -8
54 -41z m302 29 c29 -13 30 -16 10 -42 -13 -16 -18 -17 -44 -6 -31 13 -67 7
-57 -9 3 -5 26 -14 50 -20 71 -18 94 -65 56 -114 -27 -34 -84 -43 -138 -22
-46 19 -48 23 -29 49 11 15 17 16 35 7 27 -14 85 -15 80 0 -2 6 -26 18 -53 28
-57 19 -79 49 -64 89 5 14 17 31 27 38 21 17 93 18 127 2z m122 -105 l3 -113
-35 0 -35 0 0 116 0 115 33 -3 32 -3 2 -112z m239 82 c34 -33 36 -38 32 -83
-6 -63 -33 -99 -83 -113 -101 -28 -185 54 -156 152 15 51 59 79 123 79 40 0
52 -5 84 -35z m159 -45 c32 -44 62 -80 67 -80 4 0 8 36 8 80 0 64 3 80 15 80
12 0 15 -19 15 -115 0 -146 -10 -150 -95 -32 l-60 82 -3 -82 c-3 -75 -5 -83
-22 -83 -19 0 -20 7 -20 108 0 153 10 158 95 42z m305 65 c0 -12 -13 -15 -60
-15 l-60 0 0 -35 0 -35 60 0 c47 0 60 -3 60 -15 0 -12 -13 -15 -60 -15 l-60 0
0 -35 0 -35 60 0 c47 0 60 -3 60 -15 0 -12 -15 -15 -75 -15 l-75 0 0 115 0
115 75 0 c60 0 75 -3 75 -15z m430 0 c0 -10 -11 -15 -35 -15 l-35 0 0 -100 c0
-82 -3 -100 -15 -100 -12 0 -15 18 -15 100 l0 100 -34 0 c-34 0 -52 11 -39 24
3 3 44 6 90 6 67 0 83 -3 83 -15z m-135 -2650 l0 -1190 -1187 -3 -1188 -2 0
1188 c0 654 3 1192 7 1195 4 4 538 6 1187 5 l1181 -3 0 -1190z m15 -1464 l25
-18 3 -274 c1 -151 0 -283 -2 -294 -3 -11 -18 -28 -35 -38 -27 -16 -105 -17
-1201 -17 l-1172 0 -29 29 -29 29 0 275 0 274 26 26 c16 16 39 27 62 29 20 2
552 2 1182 0 1097 -2 1146 -3 1170 -21z"/>
<path d="M2473 6684 c-20 -20 -24 -31 -19 -57 9 -46 39 -71 82 -71 45 0 74 31
74 80 0 71 -84 101 -137 48z"/>
<path d="M2657 6593 c-2 -5 -10 -25 -16 -45 -14 -43 -53 -62 -99 -48 -35 10
-55 -1 -50 -26 2 -15 14 -20 53 -24 28 -3 62 -13 76 -23 41 -28 60 -14 52 40
-5 36 -2 50 16 74 13 17 20 37 17 45 -6 15 -42 20 -49 7z"/>
<path d="M2940 6570 c0 -18 5 -21 33 -18 20 2 32 8 32 18 0 10 -12 16 -32 18
-28 3 -33 0 -33 -18z"/>
<path d="M3962 6584 c-44 -30 -19 -114 34 -114 27 0 52 21 54 45 5 46 -1 62
-25 73 -33 15 -36 15 -63 -4z"/>
<path d="M2610 4740 l0 -290 290 0 290 0 0 290 0 290 -290 0 -290 0 0 -290z
m500 0 l0 -210 -207 2 -208 3 -3 195 c-1 107 0 200 2 207 4 10 53 13 211 13
l205 0 0 -210z"/>
<path d="M2780 4740 l0 -120 125 0 125 0 0 120 0 120 -125 0 -125 0 0 -120z"/>
<path d="M3360 4990 l0 -40 -40 0 -40 0 0 -85 0 -85 40 0 40 0 0 -40 0 -40
-40 0 -40 0 0 -165 0 -165 80 0 80 0 0 39 c0 40 0 40 43 43 42 3 42 3 41 41
l-1 37 43 0 43 0 3 -82 3 -83 37 3 c37 3 37 2 40 -40 3 -42 4 -43 43 -48 38
-5 40 -7 40 -40 0 -33 -2 -35 -40 -40 l-40 -5 -3 -82 -3 -83 -39 0 c-40 0 -40
0 -40 -40 l0 -40 -125 0 -125 0 0 85 0 84 83 3 82 3 3 38 c3 36 4 37 43 37 39
0 39 0 39 39 0 40 0 40 -42 43 -36 2 -42 6 -40 22 2 10 1 29 -2 41 -5 18 -12
22 -43 20 l-38 -1 -3 -82 -3 -82 -39 0 c-40 0 -40 0 -40 -40 0 -40 0 -40 -39
-40 -40 0 -40 0 -43 -42 l-3 -43 -82 -3 -83 -3 0 -39 0 -40 85 0 85 0 0 -40 0
-40 163 -2 162 -3 3 -82 3 -83 -41 0 -40 0 0 40 0 40 -85 0 -85 0 0 -80 0 -80
-39 0 c-39 0 -40 1 -43 38 l-3 37 -122 3 -123 3 0 -41 0 -40 125 0 125 0 0
-85 0 -84 123 -3 122 -3 0 -35 c0 -33 2 -35 40 -40 l40 -5 3 -83 3 -83 82 3
c74 3 82 5 83 23 2 52 4 54 42 57 36 3 37 4 37 43 l0 40 -82 3 -83 3 0 39 0
40 -82 0 -83 0 0 37 c0 37 -1 38 -42 41 l-43 3 0 85 0 84 45 0 45 0 0 -40 0
-40 79 0 80 0 3 38 c3 36 4 37 46 40 l42 3 0 -85 0 -86 -46 0 -45 0 3 -37 c3
-37 4 -38 43 -38 39 0 40 1 43 37 3 35 5 37 40 40 36 3 37 4 40 46 3 42 3 42
43 42 l39 0 0 -45 0 -45 -40 0 -40 0 0 -40 0 -40 40 0 40 0 0 -85 0 -85 -40 0
-40 0 0 -40 0 -40 -40 0 -40 0 0 -40 0 -40 40 0 40 0 0 -85 0 -86 83 3 82 3 3
83 3 82 39 0 c40 0 40 0 40 40 l0 40 -85 0 -85 0 0 40 0 40 168 -2 167 -3 3
-77 3 -77 37 -3 c35 -3 37 -5 42 -43 5 -38 7 -40 42 -43 37 -3 37 -3 40 40 3
42 4 43 41 46 l37 3 0 80 0 79 -40 0 -40 0 0 -40 0 -40 -40 0 -40 0 0 85 0 85
80 0 80 0 0 40 0 40 -80 0 -80 0 0 40 0 39 78 3 77 3 3 83 3 82 44 0 45 0 0
40 0 40 40 0 40 0 0 125 0 125 -80 0 -80 0 -6 -40 c-6 -39 -8 -40 -45 -40 -39
0 -39 0 -39 40 0 40 0 40 -39 40 -40 0 -40 0 -43 42 -3 41 -4 42 -40 44 l-38
2 0 -44 0 -45 -42 3 -43 3 -3 122 -3 122 83 3 83 3 3 38 3 37 -115 0 c-64 0
-119 1 -123 3 -5 1 -9 -35 -11 -81 l-3 -83 -40 3 -40 3 -2 245 -2 245 -82 3
-83 3 0 39 c0 40 0 40 40 40 l40 0 0 125 0 125 -165 0 -165 0 0 -39 c0 -40 0
-40 -42 -43 -41 -3 -42 -3 -42 -43 l-1 -40 -80 0 -80 0 -3 43 -3 42 40 0 41 0
0 40 0 40 -40 0 -40 0 0 -40z m500 -171 c0 -39 0 -39 -40 -39 -31 0 -40 -4
-41 -17 -4 -58 -3 -58 -44 -63 l-40 -5 0 -80 0 -80 43 -3 43 -3 -3 -82 -3 -82
-40 0 -40 0 -3 83 -3 82 -39 0 c-40 0 -40 0 -40 40 0 41 -2 42 -50 42 -36 0
-39 -2 -34 -17 4 -8 3 -26 0 -40 -5 -21 -12 -25 -46 -25 -40 0 -40 0 -40 -40
l0 -40 -40 0 -40 0 0 40 0 40 40 0 c40 0 40 0 40 39 0 38 -1 39 -40 46 -39 7
-40 8 -40 46 l0 39 125 0 125 0 0 40 0 40 40 0 c40 0 40 0 40 39 0 37 2 40 33
43 17 2 56 1 85 0 l52 -4 0 -39z m-2 -246 c3 -43 3 -43 43 -43 39 0 39 0 39
-40 l0 -40 -40 0 -40 0 0 40 0 40 -40 0 c-28 0 -40 4 -41 15 -1 8 -2 21 -3 28
-5 29 15 48 47 45 30 -3 32 -6 35 -45z m82 -373 l0 -80 28 -1 c57 -3 57 -3 60
-46 3 -43 3 -43 43 -43 39 0 39 0 39 -40 l0 -40 -40 0 -40 0 0 -42 0 -43 77 0
78 0 3 -42 3 -43 85 0 84 0 0 40 c0 34 4 41 25 46 41 10 55 -1 55 -46 0 -40 0
-40 39 -40 30 0 40 -4 44 -20 11 -42 -3 -60 -44 -60 -39 0 -39 0 -39 40 l0 40
-40 0 -40 0 0 -40 0 -40 -85 0 -85 0 0 40 0 40 -79 0 -80 0 -3 -37 c-3 -37 -4
-38 -45 -41 l-43 -3 0 40 0 41 -40 0 -40 0 0 -41 0 -40 -42 3 c-42 3 -43 4
-42 38 0 34 2 35 42 38 l42 3 0 85 0 84 -40 0 -40 0 0 -86 0 -85 -42 3 -43 3
-3 83 -3 82 46 0 45 0 0 39 c0 39 1 40 38 43 l37 3 3 123 3 122 39 0 40 0 0
-80z m420 -253 l0 -84 -40 0 -40 0 0 84 0 83 40 0 40 0 0 -83z m250 -83 l0
-85 -42 3 -43 3 -3 83 -3 82 46 0 45 0 0 -86z m-332 -371 l3 -123 -126 0 -125
0 0 125 0 126 123 -3 122 -3 3 -122z m-338 -333 l0 -40 -40 0 -40 0 0 40 0 40
40 0 40 0 0 -40z"/>
<path d="M4110 3490 l0 -40 40 0 40 0 0 40 0 40 -40 0 -40 0 0 -40z"/>
<path d="M4110 4740 l0 -290 290 0 290 0 0 290 0 290 -290 0 -290 0 0 -290z
m495 0 l0 -205 -205 0 -205 0 -3 195 c-1 107 0 200 3 207 3 11 48 13 207 11
l203 -3 0 -205z"/>
<path d="M4282 4739 l3 -122 111 0 c62 0 116 3 120 6 5 3 8 57 6 121 l-3 116
-120 0 -120 0 3 -121z"/>
<path d="M2614 4361 c-2 -2 -4 -22 -4 -43 0 -38 0 -38 40 -38 l40 0 0 -40 0
-40 -40 0 -40 0 0 -125 0 -125 40 0 c40 0 40 0 40 39 0 40 0 40 43 43 42 3 42
3 42 43 l0 40 -40 0 c-40 0 -40 0 -43 43 l-3 42 85 0 86 0 0 -40 0 -40 40 0
40 0 0 -45 0 -45 -40 0 -40 0 0 -84 0 -84 -37 2 c-38 1 -38 1 -41 -41 l-3 -43
-45 0 -44 0 0 39 c0 43 9 50 58 46 33 -3 33 -3 30 39 -3 41 -3 41 -43 41 -40
0 -40 0 -43 -42 -3 -38 -5 -41 -30 -41 -50 1 -52 -1 -52 -42 l0 -40 40 0 40 0
0 -40 0 -40 -40 0 -40 0 0 -40 0 -40 85 0 85 0 0 80 0 80 40 0 c40 0 40 0 40
40 0 34 4 41 25 46 39 10 53 -1 57 -43 3 -37 4 -38 43 -38 l40 0 0 205 0 205
-42 3 -43 3 0 78 c0 43 -2 80 -5 82 -2 3 -20 3 -40 1 -33 -4 -35 -6 -35 -43 0
-39 0 -39 -39 -39 -40 0 -40 0 -43 42 l-3 43 -78 0 c-43 0 -80 -2 -83 -4z"/>
<path d="M3168 4362 l-58 -3 0 -39 c0 -40 0 -40 39 -40 38 0 39 -1 43 -40 l4
-40 -43 0 -43 0 0 -40 c0 -40 0 -40 39 -40 39 0 40 1 43 38 3 36 4 37 46 40
l43 3 -3 81 c-3 92 5 86 -110 80z"/>
<path d="M4456 4362 c-13 -3 -16 -12 -14 -40 l3 -37 83 -3 82 -3 0 -39 c0 -39
0 -39 -42 -42 -42 -3 -43 -4 -43 -38 l0 -35 83 -3 82 -3 0 81 0 80 -40 0 -40
0 0 40 c0 31 -4 40 -17 41 -10 0 -41 1 -69 2 -28 1 -59 0 -68 -1z"/>
<path d="M3117 3864 c-4 -4 -7 -25 -7 -46 0 -38 0 -38 41 -38 l40 0 -3 42 c-3
38 -5 42 -34 45 -16 2 -33 1 -37 -3z"/>
<path d="M4608 3578 c-3 -43 -3 -43 -46 -46 l-42 -3 3 -37 4 -37 82 -3 81 -3
0 86 0 85 -39 0 c-40 0 -40 0 -43 -42z"/>
<path d="M2610 3240 l0 -290 290 0 290 0 0 290 0 290 -290 0 -290 0 0 -290z
m498 3 l-3 -208 -205 0 -205 0 -3 195 c-1 107 0 200 2 207 4 10 53 13 211 13
l205 0 -2 -207z"/>
<path d="M2780 3245 l0 -125 125 0 126 0 -3 123 -3 122 -122 3 -123 3 0 -126z"/>
<path d="M3367 3363 c-4 -3 -7 -24 -7 -45 0 -38 0 -38 -40 -38 l-40 0 0 -40 0
-40 80 0 80 0 0 -40 0 -40 -80 0 -80 0 0 -85 0 -85 40 0 40 0 0 40 0 40 40 0
40 0 0 44 0 45 43 3 42 3 0 75 0 75 -40 5 c-39 5 -40 6 -43 48 -3 40 -5 42
-36 42 -18 0 -36 -3 -39 -7z"/>
<path d="M4527 3363 c-3 -4 -4 -24 -3 -43 2 -34 3 -35 41 -35 40 0 40 0 40 40
0 39 -1 40 -37 43 -20 2 -38 -1 -41 -5z"/>
<path d="M4610 3160 l0 -40 40 0 40 0 0 40 0 40 -40 0 -40 0 0 -40z"/>
<path d="M3527 3038 l2 -83 123 0 123 0 0 80 0 80 -125 3 -125 3 2 -83z"/>
<path d="M4110 2990 l0 -41 83 3 82 3 0 35 0 35 -82 3 -83 3 0 -41z"/>
<path d="M4529 3028 c0 -2 -1 -19 -2 -38 l-2 -35 83 -3 82 -3 0 41 0 40 -80 0
c-44 0 -80 -1 -81 -2z"/>
<path d="M7178 6851 c-156 -50 -272 -172 -313 -326 -66 -254 101 -515 363
-566 214 -41 430 80 514 289 18 47 22 76 23 168 0 108 -1 111 -39 190 -65 131
-177 223 -309 254 -66 15 -176 11 -239 -9z m83 -302 c33 -35 36 -51 14 -73
-22 -22 -19 -29 33 -85 51 -54 69 -60 105 -36 22 14 25 13 60 -20 20 -19 37
-42 37 -50 0 -18 -50 -45 -82 -45 -61 1 -177 86 -230 169 -32 51 -37 113 -12
149 21 30 41 28 75 -9z"/>
<path d="M8483 6608 c-42 -11 -66 -47 -66 -99 0 -78 50 -122 114 -100 18 6 33
11 35 11 2 0 -2 -13 -7 -29 -10 -29 -44 -51 -79 -51 -13 0 -20 -7 -20 -20 0
-15 7 -20 28 -20 68 0 131 79 132 166 0 46 -17 102 -37 122 -20 21 -65 30
-100 20z m57 -38 c14 0 32 -69 26 -95 -13 -51 -89 -40 -101 14 -10 45 23 97
53 86 8 -3 17 -5 22 -5z"/>
<path d="M10312 6608 c-58 -15 -81 -84 -42 -126 20 -22 20 -22 0 -42 -73 -73
15 -178 117 -139 64 25 80 92 33 139 -20 20 -20 20 0 40 26 26 26 70 0 102
-22 29 -61 38 -108 26z m59 -38 c22 -12 26 -59 7 -78 -7 -7 -21 -12 -33 -12
-43 0 -61 53 -29 84 18 19 28 20 55 6z m15 -155 c22 -33 12 -71 -21 -79 -53
-13 -90 35 -61 79 22 33 60 33 82 0z"/>
<path d="M10950 6603 c-47 -24 -63 -74 -57 -171 5 -86 26 -122 78 -135 44 -10
83 4 105 38 21 33 30 147 15 203 -18 67 -80 95 -141 65z m74 -36 c13 -10 19
-32 23 -79 7 -85 -2 -135 -28 -148 -48 -26 -79 19 -79 116 0 100 35 147 84
111z"/>
<path d="M11234 6613 c-12 -2 -32 -15 -45 -29 -20 -21 -24 -38 -27 -100 -7
-140 17 -189 94 -189 34 0 49 6 71 28 26 25 28 35 31 116 5 107 -12 153 -60
170 -17 6 -34 10 -37 10 -3 -1 -16 -4 -27 -6z m56 -53 c17 -17 20 -33 20 -107
0 -66 -4 -91 -17 -105 -20 -22 -41 -23 -65 -1 -15 13 -18 32 -18 109 0 85 2
94 22 108 29 20 34 20 58 -4z"/>
<path d="M11498 6612 c-59 -7 -89 -91 -47 -133 21 -21 21 -21 1 -35 -51 -35
-33 -118 31 -143 104 -39 188 67 112 142 -15 15 -15 18 4 39 57 60 -7 142
-101 130z m56 -48 c32 -31 14 -84 -29 -84 -62 0 -60 98 2 100 6 0 19 -7 27
-16z m6 -144 c26 -26 25 -45 -1 -71 -22 -22 -66 -20 -81 4 -15 23 -8 56 14 71
30 21 44 20 68 -4z"/>
<path d="M8758 6592 c-57 -21 -77 -37 -61 -53 8 -8 17 -8 31 0 40 21 42 15 42
-114 l0 -125 25 0 25 0 0 155 c0 85 -3 155 -7 154 -5 0 -29 -8 -55 -17z"/>
<path d="M9103 6595 c-34 -24 -39 -71 -13 -107 l22 -30 -21 -22 c-48 -51 -14
-130 61 -142 89 -15 150 73 97 140 -19 24 -19 27 -5 48 23 33 20 81 -7 106
-28 26 -101 30 -134 7z m88 -25 c23 -13 26 -62 5 -80 -43 -35 -99 28 -61 70
21 23 28 24 56 10z m11 -147 c22 -20 23 -56 2 -77 -34 -34 -84 -11 -84 39 0
51 45 72 82 38z"/>
<path d="M9387 6505 c-37 -57 -67 -111 -67 -119 0 -12 16 -16 68 -18 l67 -3 3
-32 c3 -27 7 -33 28 -33 21 0 24 5 24 35 0 28 4 35 20 35 12 0 20 7 20 16 0 9
-9 18 -20 21 -18 5 -20 14 -20 104 l0 99 -28 0 c-25 0 -36 -12 -95 -105z m73
-35 l0 -60 -45 0 -44 0 37 60 c20 33 40 60 45 60 4 0 7 -27 7 -60z"/>
<path d="M9708 6593 c-25 -31 -128 -200 -128 -212 0 -7 24 -11 70 -11 l70 0 0
-35 c0 -31 3 -35 25 -35 21 0 25 5 25 31 0 22 5 32 20 36 11 3 20 14 20 24 0
12 -7 19 -20 19 -19 0 -20 7 -20 100 0 98 0 100 -23 100 -13 0 -31 -8 -39 -17z
m12 -123 l0 -60 -40 0 c-22 0 -40 2 -40 5 0 7 72 115 76 115 2 0 4 -27 4 -60z"/>
<path d="M9972 6593 c3 -15 16 -18 81 -21 92 -3 91 11 12 -158 l-54 -114 27 0
c23 0 30 8 49 53 12 28 40 94 62 145 23 51 41 97 41 102 0 6 -45 10 -111 10
-100 0 -110 -2 -107 -17z"/>
<path d="M10583 6590 c-92 -56 -98 -246 -10 -288 38 -18 88 -8 118 24 34 36
33 113 -2 150 -21 23 -29 26 -75 21 -47 -5 -51 -4 -47 13 7 26 35 50 69 59 16
4 30 15 32 24 5 24 -44 22 -85 -3z m76 -161 c27 -48 -11 -109 -58 -94 -35 11
-54 88 -29 113 21 21 71 10 87 -19z"/>
<path d="M11763 6594 c-70 -35 -99 -183 -50 -254 38 -58 104 -64 153 -15 33
33 34 110 2 150 -19 25 -26 27 -73 23 -46 -4 -52 -2 -48 13 7 25 36 49 69 58
16 4 30 15 32 24 4 22 -41 23 -85 1z m65 -146 c30 -30 5 -118 -34 -118 -25 0
-54 39 -54 73 0 40 15 57 50 57 14 0 31 -5 38 -12z"/>
<path d="M8237 6553 c-4 -3 -7 -24 -7 -45 0 -38 0 -38 -40 -38 -36 0 -40 -2
-40 -25 0 -22 4 -25 40 -25 l40 0 0 -45 c0 -41 2 -45 25 -45 23 0 25 4 25 45
l0 45 40 0 c36 0 40 3 40 25 0 23 -4 25 -40 25 l-40 0 0 45 c0 37 -3 45 -18
45 -10 0 -22 -3 -25 -7z"/>
<path d="M8465 6108 c-44 -25 -60 -74 -44 -132 13 -48 65 -76 109 -59 26 10
30 9 30 -6 0 -29 -24 -52 -60 -60 -27 -5 -36 -13 -38 -30 -3 -19 0 -22 13 -17
9 3 25 6 35 6 11 0 35 13 53 30 36 31 57 88 57 150 0 38 -25 99 -48 116 -21
16 -80 17 -107 2z m84 -42 c21 -26 25 -81 6 -99 -49 -49 -113 15 -85 84 10 22
19 29 40 29 15 0 33 -6 39 -14z"/>
<path d="M8750 6097 c-35 -14 -56 -29 -58 -41 -3 -15 0 -18 21 -12 14 3 32 9
41 12 14 5 16 -9 16 -119 0 -69 4 -128 9 -131 5 -4 16 -3 25 0 14 5 16 29 16
160 0 85 -3 154 -7 154 -5 0 -33 -11 -63 -23z"/>
<path d="M9060 6100 c0 -18 7 -20 80 -20 44 0 80 -1 80 -3 0 -1 -26 -61 -59
-132 -32 -72 -57 -133 -55 -137 11 -19 48 9 66 51 11 25 37 84 58 131 63 143
69 130 -59 130 -104 0 -111 -1 -111 -20z"/>
<path d="M9410 6048 c-25 -39 -55 -86 -67 -105 -37 -55 -32 -62 45 -65 l67 -3
3 -32 c3 -27 7 -33 28 -33 21 0 24 5 24 35 0 29 4 35 21 35 14 0 19 5 17 18
-2 9 -10 17 -18 17 -12 0 -16 20 -18 103 l-3 102 -27 0 c-23 0 -34 -12 -72
-72z m48 -70 c-3 -68 -12 -77 -63 -64 l-24 6 37 60 c20 32 41 59 45 60 4 0 7
-28 5 -62z"/>
<path d="M9634 6108 c-20 -9 -44 -47 -44 -68 0 -6 11 -10 25 -10 15 0 25 6 25
14 0 34 73 54 91 25 22 -35 8 -67 -66 -154 -50 -58 -72 -92 -66 -98 12 -12
196 -15 207 -4 17 16 -18 30 -71 28 -31 -1 -60 1 -66 4 -5 4 12 29 38 56 66
70 83 98 83 141 0 52 -30 78 -89 77 -25 0 -56 -5 -67 -11z"/>
<path d="M10012 6100 c-27 -25 -30 -85 -6 -111 15 -17 15 -20 -5 -45 -57 -72
18 -164 114 -140 62 16 87 97 44 142 -20 21 -20 24 -5 39 34 35 28 90 -13 122
-27 21 -104 16 -129 -7z m98 -30 c36 -36 15 -84 -35 -78 -26 3 -30 8 -33 38
-3 24 2 38 14 47 24 17 31 16 54 -7z m-5 -130 c23 -9 26 -15 23 -46 -2 -21
-10 -42 -20 -48 -23 -14 -72 4 -76 27 -6 30 7 65 26 70 9 3 18 5 19 6 1 0 14
-3 28 -9z"/>
<path d="M10277 6100 c-29 -23 -43 -74 -33 -116 15 -57 90 -96 124 -62 18 18
27 1 16 -29 -7 -20 -20 -30 -49 -39 -29 -8 -40 -16 -40 -30 0 -15 6 -18 30
-16 40 4 76 31 98 73 14 26 17 52 15 112 -3 72 -6 81 -31 103 -36 31 -94 32
-130 4z m100 -32 c21 -26 24 -80 7 -100 -51 -55 -121 23 -84 93 12 22 62 26
77 7z"/>
<path d="M10535 6063 c-3 -32 -7 -67 -8 -78 -2 -18 3 -20 55 -17 49 3 58 0 72
-20 20 -28 20 -57 0 -86 -20 -29 -58 -28 -82 3 -23 29 -52 33 -52 8 1 -37 48
-73 95 -73 46 0 83 27 96 69 23 77 -21 145 -91 140 -22 -2 -40 0 -40 4 0 4 0
21 0 37 l0 30 65 0 c58 0 65 2 65 20 0 18 -7 20 -84 20 l-85 0 -6 -57z"/>
<path d="M10948 6011 c-38 -60 -68 -114 -68 -120 0 -6 29 -11 68 -13 l67 -3 3
-32 c3 -27 7 -33 28 -33 21 0 24 5 24 35 0 29 4 35 21 35 14 0 19 5 17 18 -2
9 -10 17 -18 17 -12 0 -16 20 -18 103 l-3 102 -27 0 c-23 -1 -36 -15 -94 -109z
m68 -87 c-6 -16 -62 -19 -71 -4 -3 5 11 36 32 67 l38 58 3 -54 c2 -29 1 -60
-2 -67z"/>
<path d="M11186 6098 c-13 -13 -27 -33 -31 -45 -5 -20 -3 -23 19 -23 16 0 27
7 31 21 13 39 76 45 96 8 15 -29 -10 -75 -79 -149 -39 -41 -61 -72 -59 -85 2
-19 9 -20 102 -20 87 0 100 2 103 18 3 15 -5 17 -67 17 -39 0 -71 3 -71 7 0 3
22 32 48 62 69 79 86 115 73 153 -15 43 -38 57 -93 58 -35 0 -53 -6 -72 -22z"/>
<path d="M11410 6100 c0 -18 7 -20 80 -20 44 0 80 -4 80 -9 0 -5 -25 -62 -55
-128 -62 -133 -65 -147 -32 -137 12 3 23 7 23 8 8 7 124 281 124 292 0 11 -22
14 -110 14 -103 0 -110 -1 -110 -20z"/>
<path d="M11716 6098 c-3 -13 -7 -49 -11 -82 l-5 -58 58 7 c46 5 61 3 71 -9
16 -20 17 -82 1 -101 -20 -24 -65 -19 -80 10 -13 25 -44 33 -55 15 -10 -15 13
-49 45 -65 43 -22 84 -19 118 10 35 29 45 69 31 119 -13 48 -48 70 -99 63 -43
-5 -47 1 -34 51 6 20 13 22 64 22 40 0 59 4 63 14 9 23 -2 26 -84 26 -73 0
-79 -1 -83 -22z"/>
<path d="M8237 6064 c-4 -4 -7 -25 -7 -46 0 -38 0 -38 -40 -38 -36 0 -40 -2
-40 -25 0 -22 4 -25 40 -25 l40 0 0 -45 c0 -41 2 -45 25 -45 23 0 25 4 25 45
l0 45 40 0 c36 0 40 3 40 25 0 22 -4 25 -39 25 -40 0 -40 0 -43 42 -3 41 -22
60 -41 42z"/>
<path d="M7169 4921 c-70 -22 -167 -88 -212 -143 -152 -188 -140 -445 29 -616
186 -187 477 -185 654 5 33 35 68 80 79 101 48 94 64 220 40 321 -35 153 -158
285 -310 332 -78 24 -204 24 -280 0z m280 -318 c-24 -37 -129 -114 -147 -108
-9 3 -46 33 -82 65 l-65 60 153 0 c143 0 151 -1 141 -17z m-260 -60 l50 -48
-52 -57 c-29 -32 -56 -58 -60 -58 -4 0 -7 47 -7 105 0 60 4 105 10 105 5 0 32
-21 59 -47z m311 -58 c0 -58 -2 -105 -5 -105 -10 0 -105 105 -105 117 0 12 89
93 103 93 4 0 7 -47 7 -105z m-30 -137 c0 -5 -72 -8 -160 -8 -88 0 -160 3
-160 8 0 4 25 34 55 67 l55 59 29 -17 c27 -16 29 -16 47 4 l19 21 57 -63 c32
-35 58 -67 58 -71z"/>
<path d="M8570 4397 c-14 -7 -30 -28 -36 -47 -6 -19 -16 -36 -23 -38 -16 -5
-13 -32 4 -32 12 0 15 -17 15 -90 0 -83 1 -90 20 -90 19 0 20 7 20 90 0 89 0
90 25 90 32 0 34 27 3 32 -31 4 -30 39 2 55 28 14 33 36 10 40 -8 2 -26 -3
-40 -10z"/>
<path d="M9540 4250 c0 -143 1 -150 20 -150 18 0 20 7 20 78 0 82 9 102 45
102 36 0 45 -20 45 -102 0 -71 2 -78 20 -78 18 0 20 7 20 84 0 115 -30 149
-107 122 -22 -7 -23 -5 -23 43 0 44 -3 51 -20 51 -19 0 -20 -7 -20 -150z"/>
<path d="M8167 4383 c-8 -12 -8 -248 -1 -266 3 -9 15 -17 25 -17 18 0 19 9 19
145 0 137 -1 145 -19 145 -11 0 -22 -3 -24 -7z"/>
<path d="M9280 4245 c0 -138 1 -145 20 -145 18 0 20 7 20 54 l0 54 60 4 c66 5
95 23 105 68 9 40 -17 85 -56 99 -18 6 -58 11 -90 11 l-59 0 0 -145z m144 89
c19 -18 21 -55 4 -72 -7 -7 -34 -12 -60 -12 l-48 0 0 50 0 50 44 0 c27 0 51
-6 60 -16z"/>
<path d="M10195 4380 c-9 -15 4 -30 26 -30 12 0 19 7 19 20 0 21 -33 29 -45
10z"/>
<path d="M10550 4245 c0 -138 1 -145 20 -145 19 0 20 7 20 95 0 52 4 95 9 95
4 0 35 -43 67 -95 46 -74 64 -95 82 -95 22 0 22 1 22 146 0 144 0 145 -22 142
-21 -3 -22 -8 -23 -90 0 -47 -3 -89 -6 -93 -4 -3 -34 37 -68 90 -44 68 -67 95
-81 95 -19 0 -20 -7 -20 -145z"/>
<path d="M8993 4359 c-111 -55 -125 -262 -22 -323 31 -18 116 -25 138 -12 25
16 8 25 -38 19 -88 -10 -141 44 -141 144 1 63 30 127 69 147 16 9 50 16 75 16
63 0 104 -37 112 -102 10 -75 -16 -135 -52 -121 -12 4 -15 20 -13 73 1 37 -1
72 -5 78 -12 20 -73 14 -95 -10 -41 -43 -50 -118 -19 -155 13 -16 50 -17 66
-1 9 9 17 9 35 -1 83 -44 148 78 98 183 -40 82 -122 108 -208 65z m97 -138 c0
-56 -26 -99 -53 -88 -30 12 -18 106 17 129 27 18 36 7 36 -41z"/>
<path d="M11289 4363 c-1 -4 -2 -12 -4 -18 -1 -5 -3 -16 -3 -22 -1 -7 -9 -13
-17 -13 -22 0 -18 -27 5 -33 18 -5 20 -14 20 -79 0 -82 9 -98 52 -98 21 0 28
5 28 19 0 10 -9 21 -20 24 -17 4 -20 14 -20 71 0 59 2 66 20 66 11 0 20 7 20
15 0 8 -9 15 -19 15 -14 0 -21 8 -23 27 -3 25 -36 47 -39 26z"/>
<path d="M8348 4304 c-16 -8 -28 -10 -28 -4 0 5 -9 10 -20 10 -19 0 -20 -7
-20 -105 0 -98 1 -105 20 -105 18 0 20 7 20 78 0 82 9 102 45 102 36 0 45 -20
45 -102 0 -71 2 -78 20 -78 19 0 20 7 20 89 0 85 -1 91 -26 110 -31 25 -40 25
-76 5z"/>
<path d="M8713 4306 c-40 -18 -53 -43 -53 -104 0 -44 4 -54 31 -76 40 -34 87
-34 122 -2 87 81 6 228 -100 182z m77 -41 c21 -26 16 -96 -9 -116 -39 -32 -81
1 -81 64 0 54 60 88 90 52z"/>
<path d="M10013 4305 c-18 -8 -33 -18 -33 -24 0 -5 -3 -16 -6 -24 -8 -21 29
-52 77 -66 33 -10 40 -16 37 -34 -4 -30 -41 -34 -67 -8 -24 24 -51 28 -51 7 0
-23 50 -56 86 -56 20 0 43 9 61 24 24 21 26 27 18 52 -8 21 -22 31 -60 44 -37
12 -51 22 -53 38 -3 18 2 22 26 22 16 0 35 -7 42 -15 18 -21 40 -19 40 5 0 11
-12 26 -30 35 -35 18 -46 18 -87 0z"/>
<path d="M10348 4305 c-36 -20 -48 -44 -48 -94 0 -52 16 -86 47 -100 75 -34
143 14 143 103 0 70 -83 123 -142 91z m80 -37 c7 -7 12 -33 12 -59 0 -38 -5
-51 -22 -63 -29 -20 -34 -20 -58 4 -24 24 -26 77 -4 108 17 24 53 29 72 10z"/>
<path d="M10894 4310 c-101 -42 -73 -210 36 -210 29 0 70 22 70 37 0 16 -10
16 -46 3 -30 -12 -74 9 -74 35 0 12 14 15 65 15 l65 0 0 34 c0 61 -63 108
-116 86z m66 -49 c15 -30 14 -31 -35 -31 -30 0 -45 4 -45 13 0 37 62 51 80 18z"/>
<path d="M11585 4309 c-38 -22 -55 -52 -55 -102 0 -63 39 -107 95 -107 35 0
85 35 85 60 0 16 -30 12 -57 -9 -52 -41 -104 28 -72 95 18 37 62 45 79 15 11
-21 50 -30 50 -12 0 6 -10 21 -22 35 -26 30 -74 41 -103 25z"/>
<path d="M11805 4306 c-61 -27 -76 -127 -26 -177 64 -64 161 -19 161 76 0 57
-12 80 -50 100 -35 18 -46 18 -85 1z m84 -58 c21 -36 5 -98 -27 -109 -18 -7
-29 -3 -49 17 -21 21 -24 32 -20 61 3 19 11 41 18 49 19 23 61 13 78 -18z"/>
<path d="M12070 4311 c-8 -6 -26 -7 -41 -4 -23 4 -27 1 -30 -24 -2 -15 -3 -63
-1 -105 3 -69 6 -78 23 -78 17 0 19 8 19 79 0 85 10 105 52 99 22 -3 23 -8 26
-90 3 -86 3 -88 27 -88 24 0 25 2 25 78 0 83 9 102 46 102 29 0 34 -17 34
-106 0 -67 2 -74 20 -74 18 0 20 7 20 86 0 47 -4 94 -10 104 -14 26 -56 33
-92 16 -27 -14 -33 -14 -51 -1 -24 17 -46 19 -67 6z"/>
<path d="M9787 4210 c39 -110 38 -140 -2 -158 -30 -14 -24 -32 10 -32 15 0 31
10 40 24 15 22 95 241 95 259 0 5 -10 7 -21 5 -17 -2 -26 -17 -41 -67 -11 -35
-23 -60 -28 -55 -4 5 -15 35 -24 67 -14 49 -20 57 -41 57 l-24 0 36 -100z"/>
<path d="M10200 4205 c0 -98 1 -105 20 -105 19 0 20 7 20 105 0 98 -1 105 -20
105 -19 0 -20 -7 -20 -105z"/>
<path d="M11082 4261 l30 -50 -31 -51 c-37 -60 -37 -60 -11 -60 13 0 28 13 41
35 12 19 24 35 28 35 3 0 15 -16 25 -35 14 -25 26 -35 43 -35 l25 0 -23 38
c-12 20 -26 41 -31 47 -13 15 -9 33 17 75 31 49 31 50 1 50 -17 0 -27 -9 -36
-30 -7 -16 -16 -30 -21 -30 -5 0 -15 14 -24 30 -11 21 -23 30 -40 30 l-24 0
31 -49z"/>
<path d="M11424 4135 c-4 -9 -2 -21 4 -27 15 -15 44 -1 40 19 -4 23 -36 29
-44 8z"/>
<path d="M7225 2978 c-188 -36 -340 -198 -368 -392 -28 -193 79 -390 258 -476
62 -30 81 -35 172 -38 77 -3 114 0 155 13 276 89 406 386 280 643 -42 86 -122
166 -206 206 -111 53 -186 64 -291 44z m151 -385 l138 -138 -60 -5 c-65 -6
-66 -7 -34 -73 11 -22 19 -42 17 -43 -2 -2 -19 -10 -39 -18 l-36 -15 -22 54
c-12 30 -25 55 -27 55 -3 0 -23 -19 -44 -42 l-38 -43 -1 203 c0 111 2 202 4
202 2 0 66 -62 142 -137z"/>
<path d="M9522 2333 c3 -150 4 -158 23 -158 18 0 20 8 23 80 3 85 12 105 46
105 37 0 46 -19 46 -102 0 -71 2 -78 20 -78 19 0 20 7 20 90 0 77 -3 93 -20
110 -21 21 -74 27 -85 10 -15 -24 -25 -6 -25 45 0 52 -1 55 -25 55 l-26 0 3
-157z"/>
<path d="M10214 2465 c-4 -9 -2 -21 4 -27 15 -15 44 -1 40 19 -4 23 -36 29
-44 8z"/>
<path d="M9250 2327 c0 -79 3 -146 6 -149 3 -3 14 -4 25 -1 16 4 19 14 19 58
l0 53 64 4 c53 3 68 8 85 28 32 39 28 92 -10 124 -27 23 -39 26 -110 26 l-79
0 0 -143z m154 87 c19 -18 21 -55 4 -72 -7 -7 -34 -12 -60 -12 l-48 0 0 50 0
50 44 0 c27 0 51 -6 60 -16z"/>
<path d="M10580 2326 c0 -80 4 -147 9 -150 5 -4 17 -3 26 0 14 6 16 21 15 98
-1 50 -1 95 -1 101 1 5 29 -36 63 -90 34 -55 62 -101 63 -103 2 -2 14 -5 29
-8 l26 -4 0 150 0 150 -25 0 c-24 0 -24 -1 -27 -102 l-3 -103 -64 103 c-52 82
-69 102 -88 102 l-23 0 0 -144z"/>
<path d="M11350 2427 c0 -16 -7 -26 -20 -30 -11 -3 -20 -12 -20 -21 0 -9 8
-16 20 -16 18 0 20 -7 20 -77 0 -43 4 -84 9 -91 13 -21 75 -21 79 1 2 11 -3
17 -16 17 -26 0 -30 13 -24 88 3 44 8 62 18 62 19 0 18 27 -2 38 -8 5 -17 17
-18 28 -2 11 -12 20 -24 22 -18 3 -22 -2 -22 -21z"/>
<path d="M8418 2388 c-9 -7 -21 -39 -28 -70 -6 -32 -15 -58 -20 -58 -4 0 -16
29 -26 65 -15 56 -20 66 -38 63 -16 -2 -25 -18 -39 -65 -10 -35 -22 -63 -26
-63 -4 0 -13 29 -20 65 -12 59 -15 65 -38 65 -17 0 -23 -4 -20 -13 3 -8 15
-52 27 -98 21 -79 42 -115 61 -103 5 3 18 37 30 75 12 39 25 67 29 62 3 -4 15
-36 25 -70 15 -51 22 -63 39 -63 18 0 25 14 49 102 27 101 26 130 -5 106z"/>
<path d="M8486 2393 c-2 -2 4 -35 15 -71 11 -37 24 -84 30 -105 8 -31 14 -38
31 -35 17 2 26 18 43 73 l22 70 12 -30 c7 -16 18 -49 24 -72 9 -34 16 -43 33
-43 19 0 25 11 43 78 36 133 37 142 12 135 -14 -4 -24 -18 -31 -47 -29 -116
-25 -115 -56 -13 -24 81 -45 78 -74 -9 -25 -73 -30 -72 -49 13 -9 35 -18 53
-31 56 -10 3 -21 3 -24 0z"/>
<path d="M8810 2384 c0 -16 48 -193 56 -205 2 -4 12 -5 23 -2 13 3 22 21 31
59 23 93 34 97 55 21 31 -116 54 -111 90 19 31 110 31 124 5 117 -14 -4 -22
-20 -32 -63 -7 -33 -17 -59 -22 -60 -5 -1 -18 26 -28 59 -15 47 -23 61 -38 61
-15 0 -23 -13 -36 -57 -20 -71 -29 -83 -38 -46 -22 88 -27 101 -46 106 -13 3
-20 0 -20 -9z"/>
<path d="M9750 2389 c0 -6 16 -55 35 -111 38 -108 38 -133 -1 -150 -29 -14
-32 -38 -3 -38 51 0 63 20 123 206 32 97 32 106 5 95 -16 -5 -27 -26 -41 -69
-10 -34 -22 -62 -27 -62 -4 0 -16 29 -26 65 -9 36 -20 65 -24 66 -3 0 -14 2
-23 4 -10 2 -18 -1 -18 -6z"/>
<path d="M10030 2393 c-47 -18 -65 -68 -34 -94 9 -8 35 -21 58 -29 29 -11 42
-22 44 -38 3 -19 -1 -22 -33 -22 -22 0 -38 6 -41 15 -7 16 -54 21 -54 5 0 -32
79 -68 122 -55 77 24 77 103 0 121 -42 10 -72 32 -66 49 8 20 53 19 75 -1 22
-20 51 -12 43 11 -12 31 -75 52 -114 38z"/>
<path d="M10373 2390 c-33 -14 -56 -56 -57 -105 -3 -118 137 -156 188 -52 45
93 -40 196 -131 157z m81 -52 c34 -48 9 -128 -39 -128 -13 0 -31 10 -39 22
-34 48 -9 128 39 128 13 0 31 -10 39 -22z"/>
<path d="M10908 2371 c-30 -26 -33 -35 -33 -84 0 -45 5 -60 24 -81 30 -32 80
-42 118 -24 29 14 40 46 13 39 -50 -13 -72 -12 -90 4 -38 34 -26 45 50 45 l70
0 0 30 c0 91 -85 131 -152 71z m102 -32 c15 -27 7 -33 -41 -36 -44 -2 -55 8
-39 37 15 28 65 27 80 -1z"/>
<path d="M11110 2386 c0 -6 11 -28 25 -48 31 -46 31 -51 -4 -108 -27 -44 -28
-48 -11 -53 24 -6 34 2 54 41 19 37 28 35 46 -7 13 -33 30 -43 50 -31 11 7 7
19 -18 56 l-31 48 30 52 c16 28 29 54 29 56 0 3 -11 3 -25 0 -15 -2 -32 -16
-41 -33 -8 -16 -17 -29 -19 -29 -3 0 -14 14 -25 32 -18 30 -60 47 -60 24z"/>
<path d="M11653 2388 c-12 -6 -29 -26 -39 -46 -38 -81 17 -181 94 -168 39 6
88 47 78 65 -11 17 -34 13 -46 -9 -13 -24 -52 -26 -74 -4 -23 22 -21 96 2 117
25 23 59 21 72 -3 11 -21 50 -28 50 -9 0 6 -13 24 -29 40 -31 31 -68 37 -108
17z"/>
<path d="M11895 2391 c-41 -17 -60 -50 -60 -107 0 -45 4 -58 28 -81 22 -22 37
-28 73 -28 63 0 94 35 94 106 0 61 -11 84 -50 104 -32 16 -55 18 -85 6z m74
-45 c19 -22 23 -78 9 -106 -17 -31 -53 -37 -79 -14 -24 22 -26 90 -2 116 19
21 56 24 72 4z"/>
<path d="M12096 2393 c-3 -3 -6 -52 -6 -109 0 -76 3 -103 13 -107 28 -10 36
10 39 93 l3 85 29 3 c39 5 46 -10 46 -100 0 -78 6 -93 34 -82 13 5 16 22 16
84 0 84 10 104 52 98 26 -3 35 -31 37 -119 1 -48 4 -57 21 -62 19 -5 20 0 20
86 -1 61 -5 98 -14 109 -20 27 -71 34 -102 13 -23 -15 -27 -15 -43 -1 -20 18
-54 21 -82 6 -13 -7 -25 -7 -38 -1 -10 6 -21 7 -25 4z"/>
<path d="M10210 2287 c0 -57 3 -106 6 -109 3 -3 14 -4 25 -1 17 5 19 15 19
109 l0 104 -25 0 -25 0 0 -103z"/>
<path d="M9124 2209 c-8 -14 21 -43 35 -35 19 12 13 46 -8 46 -11 0 -23 -5
-27 -11z"/>
<path d="M11490 2201 c0 -20 25 -35 41 -25 5 3 9 14 9 25 0 14 -7 19 -25 19
-18 0 -25 -5 -25 -19z"/>
</g>
</svg>
