<?xml version="1.0" encoding="UTF-8" standalone="no"?>
<!DOCTYPE svg PUBLIC "-//W3C//DTD SVG 1.1//EN" "http://www.w3.org/Graphics/SVG/1.1/DTD/svg11.dtd">
<svg width="100%" height="100%" viewBox="0 0 217 217" version="1.1" xmlns="http://www.w3.org/2000/svg" xmlns:xlink="http://www.w3.org/1999/xlink" xml:space="preserve" xmlns:serif="http://www.serif.com/" style="fill-rule:evenodd;clip-rule:evenodd;stroke-linejoin:round;stroke-miterlimit:2;">
    <g transform="matrix(1,0,0,1,-460.317,-1643.13)">
        <g transform="matrix(1.56156,0,0,1.32471,-248.531,-342.886)">
            <g transform="matrix(0.640387,0,0,0.754881,159.156,384.425)">
                <circle cx="568.604" cy="1585.05" r="108.287" style="fill:rgb(33,177,255);fill-opacity:0.1;"/>
            </g>
        </g>
        <g transform="matrix(1.56156,0,0,1.32471,-248.531,-342.886)">
            <g id="iconfinder_phone_326545" transform="matrix(4.58467,0,0,5.40435,523.283,1580.95)">
                <g transform="matrix(1,0,0,1,-9,-9)">
                    <g transform="matrix(0.812843,0,0,0.812843,1.52555,1.68503)">
                        <g id="Page-1">
                            <g id="Icons-Communication">
                                <g id="phone">
                                    <path id="Shape" d="M3.6,7.8C5,10.6 7.4,12.9 10.2,14.4L12.4,12.2C12.7,11.9 18,13 18,13.6L18,17C18,17.6 17.6,18 17,18C7.6,18 0,10.4 0,1C0,0.4 0.4,0 1,0L4.5,0C5.1,0 6.1,5.3 5.9,5.6L3.6,7.8Z" style="fill:none;stroke:rgb(33,177,255);stroke-width:0.85px;"/>
                                </g>
                            </g>
                        </g>
                    </g>
                </g>
            </g>
        </g>
        <g transform="matrix(1.56156,0,0,1.32471,-248.531,-342.886)">
            <g transform="matrix(2.25005,0,0,2.65233,-669.01,-2021.07)">
                <text x="499.193px" y="1388.98px" style="font-family:'Gilroy-ExtraBold', 'Gilroy';font-weight:800;font-size:24.583px;fill:rgb(176,210,239);">1</text>
            </g>
        </g>
    </g>
</svg>
