<?xml version="1.0" encoding="UTF-8" standalone="no"?>
<!DOCTYPE svg PUBLIC "-//W3C//DTD SVG 1.1//EN" "http://www.w3.org/Graphics/SVG/1.1/DTD/svg11.dtd">
<svg width="100%" height="100%" viewBox="0 0 217 219" version="1.1" xmlns="http://www.w3.org/2000/svg" xmlns:xlink="http://www.w3.org/1999/xlink" xml:space="preserve" xmlns:serif="http://www.serif.com/" style="fill-rule:evenodd;clip-rule:evenodd;stroke-linejoin:round;stroke-miterlimit:2;">
    <g transform="matrix(1,0,0,1,-1036.44,-1643.13)">
        <g transform="matrix(1.56156,0,0,1.32471,-248.531,-342.886)">
            <g transform="matrix(0.640387,0,0,0.754881,528.1,384.425)">
                <circle cx="568.604" cy="1585.05" r="108.287" style="fill:rgb(33,177,255);fill-opacity:0.1;"/>
            </g>
        </g>
        <g transform="matrix(0.2326,0,0,0.2326,1082.86,1696.54)">
            <g transform="matrix(0.99813,0,0,0.99813,10.4842,2.09189)">
                <path d="M300.522,100.696C282.11,100.696 267.13,85.717 267.13,67.305C267.13,48.893 282.11,33.914 300.522,33.914C318.934,33.914 333.913,48.893 333.913,67.305C333.913,85.717 318.934,100.696 300.522,100.696ZM367.304,67.305C367.304,30.481 337.346,0.522 300.522,0.522C263.698,0.522 233.739,30.481 233.739,67.305C233.739,104.129 263.698,134.087 300.522,134.087C337.346,134.087 367.304,104.129 367.304,67.305Z" style="fill:rgb(78,171,224);fill-rule:nonzero;stroke:rgb(244,249,253);stroke-width:14.3px;"/>
                <path d="M50.087,401.218L461.913,401.218C471.119,401.218 478.609,408.707 478.609,417.913C478.609,427.119 471.119,434.609 461.913,434.609L50.087,434.609C40.881,434.609 33.391,427.119 33.391,417.913C33.391,408.707 40.881,401.218 50.087,401.218ZM66.782,301.044C85.194,301.044 100.174,316.023 100.174,334.435C100.174,352.847 85.194,367.826 66.782,367.826C48.37,367.826 33.391,352.847 33.391,334.435C33.391,316.023 48.37,301.044 66.782,301.044ZM183.652,334.435L461.913,334.435C471.119,334.435 478.609,341.925 478.609,351.131C478.609,360.337 471.119,367.826 461.913,367.826L183.652,367.826C174.446,367.826 166.957,360.337 166.957,351.131C166.957,341.925 174.446,334.435 183.652,334.435ZM200.348,217.565C200.348,189.948 222.817,167.479 250.435,167.479L359.982,167.479C373.981,167.479 386.946,173.237 396.197,182.961L334.76,203.44C318.717,208.792 306.849,221.919 302.622,237.934C296.814,235.573 290.472,234.261 283.826,234.261L267.024,234.261L267.024,217.565C267.024,208.345 259.66,200.87 250.439,200.87C241.219,200.87 233.744,208.345 233.744,217.565L233.744,250.871C233.744,250.9 233.739,250.928 233.739,250.957C233.739,260.177 241.214,267.652 250.435,267.652L283.826,267.652C293.032,267.652 300.522,275.142 300.522,284.348C300.522,293.554 293.032,301.044 283.826,301.044L250.435,301.044C222.817,301.044 200.348,278.575 200.348,250.957L200.348,217.565ZM422.655,300.196C414.171,303.036 404.54,298.603 401.552,289.633L400.696,287.067L400.696,287.062L432.377,276.501L433.233,279.068C436.147,287.8 431.409,297.275 422.655,300.196ZM445.532,201.713C454.32,198.763 463.705,203.517 466.622,212.275C466.622,212.279 466.623,212.281 466.625,212.284C469.545,221.035 464.82,230.486 456.068,233.405C443.067,237.739 387.497,256.263 378.721,259.189C371.903,261.462 367.305,267.842 367.305,275.027L367.305,301.044L333.914,301.044L333.914,254.64C334.518,251.952 333.078,239.202 345.324,235.117L445.532,201.713ZM0,417.913C0,445.531 22.469,468 50.087,468L461.913,468C489.531,468 512,445.531 512,417.913C512,405.094 507.154,393.391 499.206,384.522C507.155,375.653 512,363.95 512,351.131C512,324.409 490.965,302.51 464.583,301.116C469.108,288.464 467.978,277.709 464.056,265.941C495.446,255.478 506.476,226.227 498.299,201.716C489.52,175.37 461.158,161.247 434.938,170.046L429.763,171.772C414.554,148.479 388.562,134.087 359.982,134.087L250.385,134.087C204.378,134.114 166.957,171.552 166.957,217.565L166.957,250.957C166.957,269.735 173.193,287.082 183.698,301.044L183.652,301.044C156.034,301.044 133.565,323.513 133.565,351.131C133.565,356.983 134.584,362.601 136.437,367.826L124.581,367.826C130.283,357.995 133.565,346.595 133.565,334.435C133.565,297.611 103.607,267.652 66.782,267.652C29.958,267.652 0,297.611 0,334.435C0,351.892 6.74,367.8 17.746,379.71C6.901,388.905 0,402.614 0,417.913Z" style="fill:rgb(78,171,224);fill-rule:nonzero;stroke:rgb(244,249,253);stroke-width:14.3px;"/>
            </g>
        </g>
        <g transform="matrix(1.56156,0,0,1.32471,-248.531,-342.886)">
            <g transform="matrix(2.25005,0,0,2.65233,-299.323,-2021.07)">
                <text x="499.193px" y="1388.98px" style="font-family:'Gilroy-ExtraBold', 'Gilroy';font-weight:800;font-size:24.583px;fill:rgb(176,210,239);">3</text>
            </g>
        </g>
    </g>
</svg>
