<?xml version="1.0" encoding="UTF-8" standalone="no"?>
<!DOCTYPE svg PUBLIC "-//W3C//DTD SVG 1.1//EN" "http://www.w3.org/Graphics/SVG/1.1/DTD/svg11.dtd">
<svg width="100%" height="100%" viewBox="0 0 217 217" version="1.1" xmlns="http://www.w3.org/2000/svg" xmlns:xlink="http://www.w3.org/1999/xlink" xml:space="preserve" xmlns:serif="http://www.serif.com/" style="fill-rule:evenodd;clip-rule:evenodd;stroke-linecap:round;stroke-miterlimit:1.5;">
    <g transform="matrix(1,0,0,1,-1302.63,-1643.13)">
        <g transform="matrix(1.56156,0,0,1.32471,-248.531,-342.886)">
            <g transform="matrix(0.640387,0,0,0.754881,698.563,384.425)">
                <circle cx="568.604" cy="1585.05" r="108.287" style="fill:rgb(33,177,255);fill-opacity:0.1;"/>
            </g>
        </g>
        <g transform="matrix(1.56156,0,0,1.32471,-248.531,-342.886)">
            <g transform="matrix(2.25005,0,0,2.65233,-128.507,-2021.07)">
                <text x="499.193px" y="1388.98px" style="font-family:'Gilroy-ExtraBold', 'Gilroy';font-weight:800;font-size:24.583px;fill:rgb(176,210,239);">4</text>
            </g>
        </g>
        <g transform="matrix(1.56156,0,0,1.32471,-248.531,-342.886)">
            <g transform="matrix(0.945423,0,0,0.945423,55.3418,89.3399)">
                <g transform="matrix(0.640387,0,0,0.70503,159.156,347.115)">
                    <path d="M1461.72,1705.16C1461.72,1700.98 1460.17,1696.98 1457.42,1694.03C1454.66,1691.07 1450.92,1689.41 1447.02,1689.41C1430.94,1689.41 1399.67,1689.41 1383.59,1689.41C1379.69,1689.41 1375.95,1691.07 1373.19,1694.03C1370.43,1696.98 1368.88,1700.98 1368.88,1705.16C1368.88,1727.78 1368.88,1779.89 1368.88,1802.51C1368.88,1806.69 1370.43,1810.69 1373.19,1813.64C1375.95,1816.6 1379.69,1818.26 1383.59,1818.26C1399.67,1818.26 1430.94,1818.26 1447.02,1818.26C1450.92,1818.26 1454.66,1816.6 1457.42,1813.64C1460.17,1810.69 1461.72,1806.69 1461.72,1802.51C1461.72,1779.89 1461.72,1727.78 1461.72,1705.16L1461.72,1705.16ZM1457.11,1705.16C1457.11,1702.29 1456.05,1699.55 1454.15,1697.52C1452.26,1695.49 1449.69,1694.36 1447.02,1694.36C1430.94,1694.36 1399.67,1694.36 1383.59,1694.36C1380.91,1694.36 1378.35,1695.49 1376.45,1697.52C1374.56,1699.55 1373.5,1702.29 1373.5,1705.16C1373.5,1727.78 1373.5,1779.89 1373.5,1802.51C1373.5,1805.38 1374.56,1808.13 1376.45,1810.15C1378.35,1812.18 1380.91,1813.32 1383.59,1813.32C1399.67,1813.32 1430.94,1813.32 1447.02,1813.32C1449.69,1813.32 1452.26,1812.18 1454.15,1810.15C1456.05,1808.13 1457.11,1805.38 1457.11,1802.51C1457.11,1779.89 1457.11,1727.78 1457.11,1705.16Z" style="fill:rgb(78,171,224);"/>
                </g>
                <g transform="matrix(0.640387,0,0,0.754881,159.062,259.42)">
                    <circle cx="1415.45" cy="1688.28" r="5.302" style="fill:rgb(244,250,251);"/>
                    <path d="M1415.45,1678.37C1409.98,1678.37 1405.54,1682.81 1405.54,1688.28C1405.54,1693.76 1409.98,1698.2 1415.45,1698.2C1420.93,1698.2 1425.37,1693.76 1425.37,1688.28C1425.37,1682.81 1420.93,1678.37 1415.45,1678.37ZM1415.45,1682.98C1418.38,1682.98 1420.75,1685.36 1420.75,1688.28C1420.75,1691.21 1418.38,1693.58 1415.45,1693.58C1412.53,1693.58 1410.15,1691.21 1410.15,1688.28C1410.15,1685.36 1412.53,1682.98 1415.45,1682.98Z" style="fill:rgb(78,171,224);"/>
                </g>
                <g transform="matrix(0.640387,0,0,0.632212,157.871,467.618)">
                    <path d="M1429.67,1693.66C1429.67,1691.76 1428.38,1690.22 1426.79,1690.22C1422.03,1690.22 1412.59,1690.22 1407.83,1690.22C1406.24,1690.22 1404.95,1691.76 1404.95,1693.66C1404.95,1695.2 1404.95,1697.01 1404.95,1698.55C1404.95,1700.45 1406.24,1701.99 1407.83,1701.99C1412.59,1701.99 1422.03,1701.99 1426.79,1701.99C1428.38,1701.99 1429.67,1700.45 1429.67,1698.55C1429.67,1697.01 1429.67,1695.2 1429.67,1693.66Z" style="fill:rgb(244,250,251);"/>
                    <path d="M1434.28,1693.66C1434.28,1688.72 1430.93,1684.71 1426.79,1684.71C1422.03,1684.71 1412.59,1684.71 1407.83,1684.71C1403.69,1684.71 1400.34,1688.72 1400.34,1693.66C1400.34,1695.2 1400.34,1697.01 1400.34,1698.55C1400.34,1703.49 1403.69,1707.5 1407.83,1707.5C1412.59,1707.5 1422.03,1707.5 1426.79,1707.5C1430.93,1707.5 1434.28,1703.49 1434.28,1698.55C1434.28,1697.01 1434.28,1695.2 1434.28,1693.66L1434.28,1693.66ZM1429.67,1693.66C1429.67,1691.76 1428.38,1690.22 1426.79,1690.22C1422.03,1690.22 1412.59,1690.22 1407.83,1690.22C1406.24,1690.22 1404.95,1691.76 1404.95,1693.66C1404.95,1695.2 1404.95,1697.01 1404.95,1698.55C1404.95,1700.45 1406.24,1701.99 1407.83,1701.99C1412.59,1701.99 1422.03,1701.99 1426.79,1701.99C1428.38,1701.99 1429.67,1700.45 1429.67,1698.55C1429.67,1697.01 1429.67,1695.2 1429.67,1693.66Z" style="fill:rgb(78,171,224);"/>
                </g>
                <g transform="matrix(0.640387,0,0,0.754881,159.156,258.838)">
                    <path d="M1382.24,1734.98L1425.08,1734.98" style="fill:none;stroke:rgb(78,171,224);stroke-width:4.62px;"/>
                </g>
                <g transform="matrix(0.86206,0,0,0.754881,-147.248,269.143)">
                    <path d="M1382.24,1734.98L1425.08,1734.98" style="fill:none;stroke:rgb(78,171,224);stroke-width:3.89px;"/>
                </g>
                <g transform="matrix(0.86206,0,0,0.754881,-147.248,278.914)">
                    <path d="M1382.24,1734.98L1425.08,1734.98" style="fill:none;stroke:rgb(78,171,224);stroke-width:3.89px;"/>
                </g>
                <g transform="matrix(0.383529,0,0,0.754881,514.197,288.331)">
                    <path d="M1382.24,1734.98L1425.08,1734.98" style="fill:none;stroke:rgb(78,171,224);stroke-width:5.6px;"/>
                </g>
            </g>
        </g>
    </g>
</svg>
